<?xml version="1.0" encoding="utf-8"?>
<!-- Generator: Adobe Illustrator 25.0.1, SVG Export Plug-In . SVG Version: 6.00 Build 0)  -->
<svg version="1.0" id="Layer_1" xmlns="http://www.w3.org/2000/svg" xmlns:xlink="http://www.w3.org/1999/xlink" x="0px" y="0px"
	 viewBox="0 0 972 687" style="enable-background:new 0 0 972 687;" xml:space="preserve">
<style type="text/css">
	.st0{fill:#06B3BA;}
</style>
<path class="st0" d="M321.9,421.7c-22,21.2-51.5,32.7-83.4,32.7c-32.3,0-61.8-11.5-83.9-32.7c-43.9-42.6-44.9-112.8-2.3-156.7
	c0.8-0.8,1.6-1.6,2.4-2.4c22-21.2,51.5-32.6,83.8-32.6c31.9,0,61.4,11.5,83.4,32.7c43.9,42.5,45,112.4,2.6,156.3
	C323.7,419.9,322.8,420.8,321.9,421.7 M238.6,266.3c-42.2,0-74,32.6-74,75.8s31.9,75.9,74,75.9c41.7,0,73.5-32.7,73.5-75.9
	S280.2,266.3,238.6,266.3 M599,256.2L508.6,457l-5.1-1c-25.8-4.6-30.9-11.1-43-37.2l-67.5-146.9h-25.3v-35.8h96v35.8h-23l54.3,121.8
	l52.6-121.8h-28.1v-35.8h79.7L599,256.2z M817.3,421.7c-22,21.2-51.5,32.7-83.4,32.7c-32.3,0-61.8-11.5-83.8-32.7
	c-43.9-42.5-45.1-112.6-2.5-156.5c0.8-0.9,1.7-1.7,2.5-2.5c22-21.2,51.5-32.6,83.8-32.6c31.9,0,61.4,11.5,83.4,32.7
	c43.9,42.5,45,112.6,2.5,156.5C819,420,818.1,420.8,817.3,421.7 M733.9,266.3c-42.2,0-74,32.6-74,75.8s31.9,75.9,74,75.9
	c41.7,0,73.5-32.7,73.5-75.9S775.6,266.3,733.9,266.3"/>
</svg>
