<?xml version="1.0" encoding="utf-8"?>
<!-- Generator: Adobe Illustrator 25.4.1, SVG Export Plug-In . SVG Version: 6.00 Build 0)  -->
<svg version="1.0" id="Layer_1" xmlns="http://www.w3.org/2000/svg" xmlns:xlink="http://www.w3.org/1999/xlink" x="0px" y="0px"
	 viewBox="0 0 236 162" style="enable-background:new 0 0 236 162;" xml:space="preserve">
<style type="text/css">
	.st0{fill:#2E4369;}
	.st1{fill:#00B9FF;}
	.st2{fill:none;}
</style>
<g id="Blue_Navy">
	<g id="Wise">
		<path class="st0" d="M204.8,78.5c0-10.1-7-17.2-16.9-17.2c-12.5,0-21,9.1-21,22.1c0,10.2,7.1,17.2,17.1,17.2
			c9.1,0,15.9-4.4,18.7-11.4h-10.1c-1.4,2.2-4.2,3.6-7.7,3.6c-5.4,0-8.7-3.6-9.1-8.6h28.3C204.6,82.3,204.8,80.4,204.8,78.5z
			 M176.7,77.3c0.9-4.6,5.4-8.3,10.9-8.3c4.4-0.2,8.1,3.3,8.3,7.7c0,0.2,0,0.4,0,0.6H176.7z"/>
		<path class="st0" d="M139.8,99.7l1.8-9.7c5.5,1.1,6.4-2,7.8-9.6l0.7-3.7c2-10.5,6.1-15.8,17.7-14.3l-1.9,9.7
			c-5.6-1.1-6.5,3.1-7.8,9.6l-0.7,3.7C155.6,96.1,151.4,101.2,139.8,99.7z"/>
		<polygon class="st0" points="126.2,99.8 133.1,62.3 142.1,62.3 135.3,99.8 		"/>
		<polygon class="st0" points="74.4,62.3 83.2,62.3 86,89.4 97.5,62.3 106.2,62.3 109.3,89.7 120.4,62.3 129.1,62.3 113.2,99.8 
			103.3,99.8 100.1,74 89.1,99.8 79.4,99.8 		"/>
	</g>
	<polygon id="FF" class="st1" points="41.6,72.2 31.2,82.2 48.9,82.2 50.8,77.8 41.8,77.8 47.4,72.2 44.1,66.6 59.4,66.6 45.3,99.8 
		50.6,99.8 66.5,62.3 35.8,62.3 	"/>
</g>
<rect x="24" y="56" class="st2" width="188" height="50"/>
</svg>
